<?xml version="1.0" encoding="UTF-8"?>
<!-- Generator: Adobe Illustrator 25.4.1, SVG Export Plug-In . SVG Version: 6.00 Build 0)  -->
<svg version="1.1" id="Ebene_1" xmlns="http://www.w3.org/2000/svg" xmlns:xlink="http://www.w3.org/1999/xlink" x="0px" y="0px" viewBox="0 0 253.5 136" style="enable-background:new 0 0 253.5 136;" xml:space="preserve">
<style type="text/css">
	.st0{fill:#90388C;}
	.st1{fill:#133371;}
	
		.st2{clip-path:url(#SVGID_00000055704833714900820160000004297254010055672452_);fill:url(#SVGID_00000029751959893843386790000014420876719321052852_);}
	.st3{clip-path:url(#SVGID_00000114777921032559913010000013943775623674541976_);fill:#FFFFFF;}
	.st4{clip-path:url(#SVGID_00000075870134534508691860000003519087342210132624_);fill:#FFFFFF;}
	.st5{clip-path:url(#SVGID_00000041990510022992982090000002217384905170601872_);fill:#FFFFFF;}
	.st6{clip-path:url(#SVGID_00000054964221479365013710000014489232202120250763_);fill:none;stroke:#FFFFFF;stroke-width:1.017;}
	.st7{clip-path:url(#SVGID_00000154423941892199810000000002023773653075079833_);fill:none;stroke:#FFFFFF;stroke-width:1.017;}
	.st8{clip-path:url(#SVGID_00000031199611392132217560000007296405340214674819_);fill:none;stroke:#FFFFFF;stroke-width:1.017;}
	.st9{clip-path:url(#SVGID_00000002343924747199291130000005693782667036669618_);fill:none;stroke:#FFFFFF;stroke-width:1.017;}
	.st10{clip-path:url(#SVGID_00000121265723816078263100000004312524751732880304_);fill:none;stroke:#FFFFFF;stroke-width:1.017;}
	.st11{clip-path:url(#SVGID_00000165201898922633269600000002685745299551104692_);fill:none;stroke:#FFFFFF;stroke-width:1.017;}
	.st12{clip-path:url(#SVGID_00000165936449088179154690000003051629996999447686_);fill:none;stroke:#FFFFFF;stroke-width:1.017;}
	.st13{clip-path:url(#SVGID_00000100353277933867154340000002561188294721503661_);fill:none;stroke:#FFFFFF;stroke-width:1.017;}
	.st14{clip-path:url(#SVGID_00000057118706569872723580000018191572581160103081_);fill:#F18500;}
	.st15{clip-path:url(#SVGID_00000014593362435449504620000013729956668685333410_);fill:none;stroke:#FFFFFF;stroke-width:1.017;}
	.st16{clip-path:url(#SVGID_00000163795720666177535910000008260290498730776979_);fill:none;stroke:#FFFFFF;stroke-width:1.017;}
	.st17{clip-path:url(#SVGID_00000075133609478534705010000018057109269428316297_);fill:none;stroke:#FFFFFF;stroke-width:1.017;}
	.st18{clip-path:url(#SVGID_00000028308763550906375340000001536735209748019090_);fill:none;stroke:#FFFFFF;stroke-width:1.017;}
	.st19{clip-path:url(#SVGID_00000089549235120027350420000015209137434819721625_);fill:none;stroke:#FFFFFF;stroke-width:1.017;}
	.st20{clip-path:url(#SVGID_00000138564483097598555540000015434969878255267004_);fill:none;stroke:#FFFFFF;stroke-width:1.017;}
	.st21{clip-path:url(#SVGID_00000079461620142820753020000004408132599611791263_);fill:none;stroke:#FFFFFF;stroke-width:1.017;}
</style>
<g>
	<path class="st0" d="M127.7,31.7c-0.1,0.2-0.2,0.2-0.2,0.2s-0.1-0.1-0.3-0.2c-0.2-0.1-0.4-0.2-0.7-0.3c-0.3-0.1-0.6-0.2-1-0.3   c-0.4-0.1-0.8-0.2-1.2-0.2c-0.3,0-0.5,0-0.8,0.1s-0.5,0.2-0.7,0.3c-0.2,0.1-0.4,0.3-0.5,0.5c-0.1,0.2-0.2,0.5-0.2,0.8   c0,0.4,0.1,0.8,0.4,1.1s0.7,0.5,1.1,0.8c0.5,0.2,1,0.5,1.5,0.7c0.5,0.3,1.1,0.6,1.6,0.9c0.6,0.4,1,1,1.4,1.6   c0.4,0.6,0.5,1.3,0.5,2.2c0,0.7-0.1,1.4-0.4,1.9c-0.2,0.6-0.6,1.1-1,1.5s-0.9,0.7-1.5,1c-0.6,0.2-1.3,0.3-2,0.3   c-0.6,0-1.1-0.1-1.7-0.2c-0.6-0.1-1.1-0.2-1.5-0.4c-0.4-0.1-0.8-0.3-1.1-0.5c-0.3-0.1-0.4-0.3-0.4-0.4V43c0-0.1,0-0.1,0.1-0.2   l0.5-1.5c0-0.1,0.1-0.2,0.2-0.2c0,0,0.1,0.1,0.4,0.2c0.2,0.1,0.5,0.2,0.8,0.3s0.7,0.2,1.2,0.3c0.4,0.1,0.9,0.2,1.4,0.2   c0.6,0,1.1-0.2,1.5-0.5s0.5-0.9,0.5-1.6c0-0.5-0.1-0.9-0.4-1.2s-0.6-0.6-1-0.8s-0.9-0.5-1.5-0.7s-1.1-0.5-1.7-0.9s-1.1-0.8-1.4-1.3   c-0.4-0.5-0.5-1.2-0.5-2.2c0-0.8,0.1-1.5,0.4-2.1s0.6-1.1,1.1-1.4c0.5-0.4,1-0.6,1.6-0.8c0.6-0.2,1.2-0.3,1.9-0.3   c0.5,0,1.1,0.1,1.6,0.2s1,0.2,1.4,0.4c0.4,0.2,0.7,0.3,1,0.5c0.3,0.2,0.4,0.3,0.4,0.4s0,0.2-0.1,0.3L127.7,31.7z"/>
	<path class="st0" d="M143,43.8c0,0.2,0,0.3-0.1,0.4c-0.1,0.1-0.2,0.1-0.4,0.1h-2c-0.2,0-0.3,0-0.4-0.1c-0.1-0.1-0.1-0.2-0.1-0.4   l-0.2-7.6c0-0.2,0-0.5,0-0.8s0-0.7,0-1s0-0.7,0-1s0-0.6,0-0.8l0,0c0,0.2-0.1,0.5-0.1,0.8c-0.1,0.3-0.1,0.6-0.2,1   c-0.1,0.3-0.1,0.7-0.2,1c-0.1,0.3-0.1,0.6-0.2,0.8l-1.4,4.4c0,0.2-0.1,0.3-0.1,0.3s-0.2,0.1-0.4,0.1h-1.4c-0.2,0-0.3,0-0.4-0.1   c0,0-0.1-0.1-0.1-0.3l-1.3-4.4c-0.1-0.2-0.1-0.5-0.2-0.8c-0.1-0.3-0.1-0.7-0.2-1c-0.1-0.3-0.1-0.7-0.2-1c-0.1-0.3-0.1-0.6-0.1-0.8   l0,0c0,0.2,0,0.5,0,0.8s0,0.6,0,1c0,0.3,0,0.7,0,1s0,0.6,0,0.8l-0.2,7.6c0,0.2,0,0.3-0.1,0.4s-0.2,0.1-0.4,0.1H131   c-0.2,0-0.3,0-0.4-0.1c-0.1-0.1-0.1-0.2-0.1-0.4l0.6-14.5c0-0.2,0-0.3,0.1-0.4s0.2-0.1,0.4-0.1h2.2c0.2,0,0.3,0,0.3,0.1   c0,0,0.1,0.1,0.2,0.3l1.8,5.7c0.1,0.4,0.3,0.9,0.4,1.4c0.1,0.5,0.2,0.9,0.3,1.3l0,0c0-0.2,0.1-0.4,0.1-0.6c0-0.2,0.1-0.3,0.1-0.5   s0.1-0.4,0.2-0.7c0.1-0.2,0.2-0.5,0.3-0.9l1.9-5.7c0.1-0.2,0.1-0.3,0.2-0.3c0,0,0.2-0.1,0.4-0.1h2.2c0.2,0,0.3,0,0.4,0.1   c0,0.1,0.1,0.3,0.1,0.6L143,43.8z"/>
	<path class="st0" d="M147.7,43.8c0,0.2-0.1,0.3-0.1,0.4c-0.1,0.1-0.2,0.1-0.3,0.1H145c-0.3,0-0.4-0.1-0.4-0.2c0-0.1,0-0.1,0-0.2   c0-0.1,0-0.1,0.1-0.2l4.4-14.5c0-0.2,0.1-0.2,0.1-0.3c0,0,0.2-0.1,0.4-0.1h2.3c0.2,0,0.3,0,0.3,0.1c0.1,0.1,0.1,0.1,0.1,0.3   l4.4,14.5c0,0,0,0.1,0.1,0.2c0,0.1,0,0.1,0,0.2c0,0.1,0,0.1-0.1,0.1s-0.2,0-0.3,0h-2.5c-0.1,0-0.2,0-0.2-0.1s-0.1-0.2-0.1-0.4   l-1-3.6h-3.9L147.7,43.8z M151,34.2c0-0.2-0.1-0.5-0.1-0.7c-0.1-0.3-0.1-0.5-0.1-0.8s-0.1-0.6-0.1-0.8s-0.1-0.5-0.1-0.8l0,0   c0,0.5-0.1,1-0.2,1.6c-0.1,0.6-0.2,1.1-0.3,1.6l-1,3.9h3L151,34.2z"/>
	<path class="st0" d="M161.4,43.8c0,0.2,0,0.3-0.1,0.4s-0.2,0.1-0.4,0.1h-2.1c-0.2,0-0.3,0-0.4-0.1c-0.1-0.1-0.1-0.2-0.1-0.4V29.3   c0-0.2,0-0.3,0.1-0.4s0.2-0.1,0.4-0.1h3.6c0.3,0,0.6,0,1,0s0.8,0.1,1.1,0.2c0.4,0.1,0.8,0.2,1.1,0.4c0.4,0.2,0.7,0.4,1,0.8   c0.3,0.3,0.5,0.7,0.7,1.2s0.3,1.1,0.3,1.8s-0.1,1.3-0.3,1.8s-0.4,0.9-0.7,1.2s-0.6,0.6-0.8,0.7c-0.3,0.2-0.5,0.3-0.8,0.4l3.4,6   c0,0.1,0.1,0.1,0.1,0.2c0,0.1,0.1,0.1,0.1,0.2c0,0.1,0,0.1-0.1,0.2c-0.1,0-0.2,0.1-0.3,0.1l-1.9,0.5c-0.1,0-0.2,0-0.3,0   s-0.3-0.2-0.5-0.7l-3-6h-1.1V43.8z M162,35.5c0.4,0,0.7,0,1-0.1c0.3,0,0.6-0.1,0.9-0.3c0.2-0.2,0.4-0.4,0.6-0.7s0.2-0.7,0.2-1.2   s-0.1-0.9-0.2-1.1s-0.3-0.5-0.6-0.6c-0.2-0.1-0.5-0.2-0.8-0.2s-0.6,0-0.9,0h-0.8v4.3h0.6V35.5z"/>
	<path class="st0" d="M175.5,43.8c0,0.2,0,0.3-0.1,0.4s-0.2,0.1-0.4,0.1h-2.1c-0.2,0-0.3,0-0.4-0.1c-0.1-0.1-0.1-0.2-0.1-0.4V31.6   h-2.9c-0.2,0-0.3,0-0.3-0.1c0,0-0.1-0.2-0.1-0.3v-1.9c0-0.2,0-0.3,0.1-0.3c0,0,0.1-0.1,0.3-0.1h9.3c0.2,0,0.4,0,0.5,0   s0.1,0.1,0.1,0.2s0,0.1,0,0.1s0,0.1-0.1,0.2l-0.5,1.8c0,0.2-0.1,0.3-0.2,0.3c-0.1,0-0.2,0-0.3,0h-2.8V43.8z"/>
	<path class="st0" d="M196,42.9c0.1,0.1,0.1,0.3,0.1,0.3c0,0.1-0.1,0.2-0.3,0.4s-0.4,0.3-0.8,0.5c-0.3,0.2-0.7,0.3-1.2,0.4   c-0.5,0.1-1,0.2-1.5,0.2c-2,0-3.4-0.6-4.4-1.9c-1-1.3-1.4-3.3-1.4-6c0-1.3,0.1-2.4,0.4-3.5c0.2-1,0.6-1.9,1.1-2.6s1.1-1.2,1.8-1.6   s1.6-0.6,2.6-0.6c0.4,0,0.8,0.1,1.3,0.2c0.4,0.1,0.8,0.3,1.2,0.5s0.7,0.4,0.9,0.6s0.3,0.3,0.3,0.4v0.1c0,0.1,0,0.1-0.1,0.2   l-0.8,1.3c-0.1,0.1-0.2,0.2-0.3,0.2s-0.2-0.1-0.3-0.2s-0.3-0.2-0.5-0.4c-0.2-0.1-0.4-0.2-0.7-0.4c-0.2-0.1-0.5-0.2-0.8-0.2   c-0.5,0-0.9,0.1-1.2,0.3c-0.4,0.2-0.6,0.5-0.9,0.9c-0.2,0.4-0.4,0.9-0.5,1.6c-0.1,0.7-0.2,1.5-0.2,2.4c0,1,0,1.8,0.1,2.6   s0.2,1.4,0.4,1.9s0.5,0.9,0.8,1.2c0.4,0.3,0.8,0.4,1.4,0.4c0.3,0,0.6,0,0.9-0.1c0.3-0.1,0.5-0.2,0.7-0.3s0.4-0.2,0.5-0.3   c0.2-0.1,0.3-0.1,0.4-0.1c0.1,0,0.2,0.1,0.2,0.2L196,42.9z"/>
	<path class="st0" d="M204.1,43.8c0,0.2,0,0.3-0.1,0.4s-0.2,0.1-0.4,0.1h-5.5c-0.2,0-0.3,0-0.4-0.1c-0.1-0.1-0.1-0.2-0.1-0.4v-1.2   c0-0.2,0-0.3,0.1-0.4c0.1-0.1,0.2-0.1,0.4-0.1h1.2V31h-1.2c-0.2,0-0.3,0-0.4-0.1c-0.1-0.1-0.1-0.2-0.1-0.4v-1.2   c0-0.2,0-0.3,0.1-0.4s0.2-0.1,0.4-0.1h5.5c0.2,0,0.3,0,0.4,0.1c0.1,0.1,0.1,0.2,0.1,0.4v1.2c0,0.2,0,0.3-0.1,0.4s-0.2,0.1-0.4,0.1   h-1.2v11.1h1.2c0.2,0,0.3,0,0.4,0.1s0.1,0.2,0.1,0.4V43.8z"/>
	<path class="st0" d="M211.4,43.8c0,0.2,0,0.3-0.1,0.4c-0.1,0.1-0.2,0.1-0.4,0.1h-2.1c-0.2,0-0.3,0-0.4-0.1   c-0.1-0.1-0.1-0.2-0.1-0.4V31.6h-2.9c-0.2,0-0.3,0-0.3-0.1c0,0-0.1-0.2-0.1-0.3v-1.9c0-0.2,0-0.3,0.1-0.3c0,0,0.1-0.1,0.3-0.1h9.3   c0.2,0,0.4,0,0.5,0s0.1,0.1,0.1,0.2s0,0.1,0,0.1s0,0.1-0.1,0.2l-0.5,1.8c0,0.2-0.1,0.3-0.2,0.3c-0.1,0-0.2,0-0.3,0h-2.8V43.8z"/>
	<path class="st0" d="M223.4,43.8c0,0.2,0,0.3-0.1,0.4s-0.2,0.1-0.4,0.1h-2.1c-0.2,0-0.3,0-0.4-0.1s-0.1-0.2-0.1-0.4V38l-4.2-8.2   c-0.1-0.2-0.2-0.3-0.2-0.5c0-0.1,0.2-0.2,0.5-0.2l2.2-0.4c0.1,0,0.1,0,0.2,0h0.1c0,0,0.1,0,0.2,0.1c0.1,0,0.1,0.1,0.2,0.2l1.8,3.8   c0.1,0.3,0.3,0.6,0.4,1c0.2,0.4,0.3,0.9,0.5,1.5l0,0c0.2-0.7,0.4-1.2,0.5-1.6c0.2-0.4,0.3-0.7,0.5-1l1.7-3.5   c0.1-0.2,0.2-0.4,0.2-0.4s0.1-0.1,0.2-0.1c0.1,0,0.2,0,0.3,0l1.9,0.4c0.1,0,0.2,0.1,0.3,0.1s0.1,0.1,0.1,0.2v0.1   c0,0.1-0.1,0.1-0.1,0.2l-4.2,8.2L223.4,43.8L223.4,43.8z"/>
</g>
<g>
	<path class="st1" d="M138,96c0,1.6-0.1,3.1-0.4,4.5c-0.3,1.4-0.7,2.6-1.5,3.7c-0.7,1.1-1.7,1.9-3,2.5s-2.9,0.9-5,0.9   c-1.9,0-3.5-0.3-4.7-1s-2.1-1.6-2.8-2.6c-0.7-1-1.1-2.2-1.3-3.4c-0.2-1.2-0.3-2.4-0.3-3.5c0-0.3,0-0.5,0.1-0.6s0.2-0.1,0.4-0.1h5.1   c0.4,0,0.6,0.2,0.6,0.7c0,0.3,0,0.7,0,1.3c0,0.5,0.1,1.1,0.3,1.6c0.2,0.5,0.5,1,0.9,1.4s1.1,0.6,1.9,0.6c0.7,0,1.3-0.1,1.7-0.4   s0.7-0.6,0.8-1.1c0.2-0.5,0.3-1,0.3-1.6s0.1-1.3,0.1-2V76.7h-7c-0.4,0-0.7-0.1-0.9-0.2c-0.1-0.1-0.2-0.4-0.2-0.9v-2.8   c0-0.5,0.1-0.8,0.2-0.9s0.4-0.2,0.9-0.2H137c0.4,0,0.7,0.1,0.9,0.2c0.1,0.1,0.2,0.4,0.2,0.9V96H138z"/>
	<path class="st1" d="M164.6,105.7c0,0.5-0.1,0.8-0.2,0.9c-0.1,0.1-0.4,0.2-0.8,0.2h-16.8c-0.4,0-0.7-0.1-0.9-0.2   c-0.1-0.1-0.2-0.4-0.2-0.9V72.9c0-0.5,0.1-0.8,0.2-0.9c0.1-0.1,0.4-0.2,0.9-0.2h16.7c0.5,0,0.8,0,1,0.1s0.3,0.2,0.3,0.5   c0,0.1,0,0.2,0,0.3c0,0.1-0.1,0.2-0.1,0.4l-1,3.4c-0.1,0.4-0.3,0.6-0.5,0.7s-0.5,0.1-0.7,0.1h-9.9v8.4h8.7c0.5,0,0.8,0.1,0.9,0.2   c0.1,0.1,0.2,0.4,0.2,0.9v3.4c0,0.5-0.1,0.8-0.2,0.9c-0.1,0.1-0.4,0.2-0.9,0.2h-8.7v10h10.9c0.5,0,0.8,0.1,0.9,0.2   c0.1,0.1,0.2,0.4,0.2,0.9L164.6,105.7L164.6,105.7z"/>
	<path class="st1" d="M194.3,105.7c0,0.5-0.1,0.8-0.2,0.9c-0.1,0.1-0.4,0.2-0.9,0.2h-3.4c-0.4,0-0.6,0-0.7-0.1s-0.3-0.3-0.4-0.6   l-9.3-17.4c-0.8-1.4-1.4-2.7-1.8-3.7c-0.4-1-0.8-2.1-1.1-3.3h-0.1c0,0.3,0,1.1,0.1,2.2s0.1,2.3,0.1,3.4v18.4c0,0.5-0.1,0.8-0.2,0.9   c-0.1,0.1-0.4,0.2-0.9,0.2h-3.7c-0.4,0-0.7-0.1-0.9-0.2c-0.1-0.1-0.2-0.4-0.2-0.9V72.9c0-0.5,0.1-0.8,0.2-0.9   c0.1-0.1,0.4-0.2,0.9-0.2h4.2c0.4,0,0.6,0,0.7,0.1c0.1,0.1,0.3,0.3,0.4,0.5l8.4,15.8c0.7,1.4,1.3,2.7,1.8,3.9   c0.5,1.3,0.9,2.4,1.2,3.5h0.1c0-0.4,0-0.9,0-1.5s0-1.2-0.1-1.9c0-0.6,0-1.2,0-1.8c0-0.6,0-1.1,0-1.4V72.9c0-0.5,0.1-0.8,0.2-0.9   c0.1-0.1,0.4-0.2,0.9-0.2h3.7c0.4,0,0.7,0.1,0.9,0.2c0.1,0.1,0.2,0.4,0.2,0.9L194.3,105.7L194.3,105.7z"/>
	<path class="st1" d="M206.9,105.7c-0.1,0.5-0.2,0.8-0.3,0.9s-0.4,0.2-0.7,0.2h-5.2c-0.6,0-1-0.2-1-0.5c0-0.1,0-0.3,0.1-0.5   s0.1-0.3,0.1-0.4L210,72.5c0.1-0.3,0.2-0.6,0.3-0.6s0.4-0.1,0.8-0.1h5.3c0.4,0,0.6,0.1,0.7,0.2c0.1,0.1,0.2,0.3,0.3,0.6l10,32.9   c0,0.1,0.1,0.2,0.1,0.4c0.1,0.2,0.1,0.3,0.1,0.4c0,0.2-0.1,0.3-0.3,0.3c-0.2,0.1-0.4,0.1-0.7,0.1h-5.7c-0.3,0-0.5-0.1-0.5-0.2   c-0.1-0.1-0.2-0.4-0.3-0.9l-2.2-8.3h-8.8L206.9,105.7z M214.4,84.1c-0.1-0.5-0.2-1.1-0.3-1.7s-0.2-1.2-0.3-1.9s-0.2-1.3-0.3-1.9   s-0.2-1.2-0.2-1.7h-0.1c-0.1,1.1-0.3,2.3-0.5,3.6c-0.2,1.3-0.4,2.5-0.7,3.5l-2.2,8.8h6.7L214.4,84.1z"/>
</g>
<g>
	<g>
		<defs>
			<path id="SVGID_1_" d="M65.1,29.5L29.4,65.2c-1.5,1.5-1.5,4.1,0,5.6l35.7,35.7c1.5,1.5,4.1,1.5,5.6,0l35.7-35.7     c1.5-1.5,1.5-4.1,0-5.6L70.7,29.5c-0.8-0.8-1.8-1.2-2.8-1.2C66.9,28.3,65.8,28.7,65.1,29.5"/>
		</defs>
		<clipPath id="SVGID_00000173128238878905405140000005912823728756941953_">
			<use xlink:href="#SVGID_1_" style="overflow:visible;"/>
		</clipPath>
		
			<linearGradient id="SVGID_00000160883075651392663420000002147886974352711860_" gradientUnits="userSpaceOnUse" x1="79.2229" y1="-166.0752" x2="79.8104" y2="-166.0752" gradientTransform="matrix(0 -135.0919 135.0919 0 22503.2617 10810.0615)">
			<stop offset="0" style="stop-color:#133370"/>
			<stop offset="7.727270e-04" style="stop-color:#133370"/>
			<stop offset="0.1222" style="stop-color:#1E3372"/>
			<stop offset="0.2977" style="stop-color:#353577"/>
			<stop offset="0.5061" style="stop-color:#53387F"/>
			<stop offset="0.7378" style="stop-color:#7D3889"/>
			<stop offset="0.8291" style="stop-color:#90388D"/>
			<stop offset="1" style="stop-color:#90388D"/>
		</linearGradient>
		
			<rect x="27.8" y="28.3" style="clip-path:url(#SVGID_00000173128238878905405140000005912823728756941953_);fill:url(#SVGID_00000160883075651392663420000002147886974352711860_);" width="80.1" height="79.8"/>
	</g>
	<g>
		<defs>
			<path id="SVGID_00000036222338277125798650000014400193497284724645_" d="M65.1,29.5L29.4,65.2c-1.5,1.5-1.5,4.1,0,5.6l35.7,35.7     c1.5,1.5,4.1,1.5,5.6,0l35.7-35.7c1.5-1.5,1.5-4.1,0-5.6L70.7,29.5c-0.8-0.8-1.8-1.2-2.8-1.2C66.9,28.3,65.8,28.7,65.1,29.5"/>
		</defs>
		<clipPath id="SVGID_00000155144189327003615740000015037655121669799357_">
			<use xlink:href="#SVGID_00000036222338277125798650000014400193497284724645_" style="overflow:visible;"/>
		</clipPath>
		<path style="clip-path:url(#SVGID_00000155144189327003615740000015037655121669799357_);fill:#FFFFFF;" d="M83.2,55    c-0.1,0.1-0.3,0.1-0.4,0l-2.6-2.6c-0.1-0.1-0.1-0.3,0-0.4l2.6-2.6c0.1-0.1,0.3-0.1,0.4,0l2.6,2.6c0.1,0.1,0.1,0.3,0,0.4L83.2,55z"/>
	</g>
	<g>
		<defs>
			<path id="SVGID_00000170992982136661588650000012885124146533447352_" d="M65.1,29.5L29.4,65.2c-1.5,1.5-1.5,4.1,0,5.6l35.7,35.7     c1.5,1.5,4.1,1.5,5.6,0l35.7-35.7c1.5-1.5,1.5-4.1,0-5.6L70.7,29.5c-0.8-0.8-1.8-1.2-2.8-1.2C66.9,28.3,65.8,28.7,65.1,29.5"/>
		</defs>
		<clipPath id="SVGID_00000014605319067092795540000006763656177235659650_">
			<use xlink:href="#SVGID_00000170992982136661588650000012885124146533447352_" style="overflow:visible;"/>
		</clipPath>
		<path style="clip-path:url(#SVGID_00000014605319067092795540000006763656177235659650_);fill:#FFFFFF;" d="M47.8,76.1    c-0.3,0.3-0.7,0.3-1,0l-6.3-6.3c-0.3-0.3-0.3-0.7,0-1l6.3-6.3c0.3-0.3,0.7-0.3,1,0l6.3,6.3c0.3,0.3,0.3,0.7,0,1L47.8,76.1z"/>
	</g>
	<g>
		<defs>
			<path id="SVGID_00000175304773759615281910000017362953530785522598_" d="M65.1,29.5L29.4,65.2c-1.5,1.5-1.5,4.1,0,5.6l35.7,35.7     c1.5,1.5,4.1,1.5,5.6,0l35.7-35.7c1.5-1.5,1.5-4.1,0-5.6L70.7,29.5c-0.8-0.8-1.8-1.2-2.8-1.2C66.9,28.3,65.8,28.7,65.1,29.5"/>
		</defs>
		<clipPath id="SVGID_00000131336653749674612220000006564731009262325172_">
			<use xlink:href="#SVGID_00000175304773759615281910000017362953530785522598_" style="overflow:visible;"/>
		</clipPath>
		<path style="clip-path:url(#SVGID_00000131336653749674612220000006564731009262325172_);fill:#FFFFFF;" d="M81.6,80.7    c-0.2,0.2-0.5,0.2-0.7,0l-4.4-4.4c-0.2-0.2-0.2-0.5,0-0.7l4.4-4.4c0.2-0.2,0.5-0.2,0.7,0l4.4,4.4c0.2,0.2,0.2,0.5,0,0.7L81.6,80.7    z"/>
	</g>
	<g>
		<defs>
			<path id="SVGID_00000035513062515262050610000012082999059599308428_" d="M65.1,29.5L29.4,65.2c-1.5,1.5-1.5,4.1,0,5.6l35.7,35.7     c1.5,1.5,4.1,1.5,5.6,0l35.7-35.7c1.5-1.5,1.5-4.1,0-5.6L70.7,29.5c-0.8-0.8-1.8-1.2-2.8-1.2C66.9,28.3,65.8,28.7,65.1,29.5"/>
		</defs>
		<clipPath id="SVGID_00000021838855609174706970000004683546434518619833_">
			<use xlink:href="#SVGID_00000035513062515262050610000012082999059599308428_" style="overflow:visible;"/>
		</clipPath>
		
			<line style="clip-path:url(#SVGID_00000021838855609174706970000004683546434518619833_);fill:none;stroke:#FFFFFF;stroke-width:1.017;" x1="47.1" y1="69.2" x2="76.8" y2="100.4"/>
	</g>
	<g>
		<defs>
			<path id="SVGID_00000134235533791060256900000007194124241017957564_" d="M65.1,29.5L29.4,65.2c-1.5,1.5-1.5,4.1,0,5.6l35.7,35.7     c1.5,1.5,4.1,1.5,5.6,0l35.7-35.7c1.5-1.5,1.5-4.1,0-5.6L70.7,29.5c-0.8-0.8-1.8-1.2-2.8-1.2C66.9,28.3,65.8,28.7,65.1,29.5"/>
		</defs>
		<clipPath id="SVGID_00000049190748710932146280000000901292941462957957_">
			<use xlink:href="#SVGID_00000134235533791060256900000007194124241017957564_" style="overflow:visible;"/>
		</clipPath>
		
			<line style="clip-path:url(#SVGID_00000049190748710932146280000000901292941462957957_);fill:none;stroke:#FFFFFF;stroke-width:1.017;" x1="81.2" y1="76.6" x2="83" y2="52.1"/>
	</g>
	<g>
		<defs>
			<path id="SVGID_00000022562673480105144440000004508863518969426065_" d="M65.1,29.5L29.4,65.2c-1.5,1.5-1.5,4.1,0,5.6l35.7,35.7     c1.5,1.5,4.1,1.5,5.6,0l35.7-35.7c1.5-1.5,1.5-4.1,0-5.6L70.7,29.5c-0.8-0.8-1.8-1.2-2.8-1.2C66.9,28.3,65.8,28.7,65.1,29.5"/>
		</defs>
		<clipPath id="SVGID_00000076595438199814213020000008506807255727760551_">
			<use xlink:href="#SVGID_00000022562673480105144440000004508863518969426065_" style="overflow:visible;"/>
		</clipPath>
		
			<line style="clip-path:url(#SVGID_00000076595438199814213020000008506807255727760551_);fill:none;stroke:#FFFFFF;stroke-width:1.017;" x1="83.4" y1="52" x2="31" y2="76.7"/>
	</g>
	<g>
		<defs>
			<path id="SVGID_00000088811681918035875060000008030924303705056169_" d="M65.1,29.5L29.4,65.2c-1.5,1.5-1.5,4.1,0,5.6l35.7,35.7     c1.5,1.5,4.1,1.5,5.6,0l35.7-35.7c1.5-1.5,1.5-4.1,0-5.6L70.7,29.5c-0.8-0.8-1.8-1.2-2.8-1.2C66.9,28.3,65.8,28.7,65.1,29.5"/>
		</defs>
		<clipPath id="SVGID_00000173133547010377008790000013963493019570162314_">
			<use xlink:href="#SVGID_00000088811681918035875060000008030924303705056169_" style="overflow:visible;"/>
		</clipPath>
		
			<line style="clip-path:url(#SVGID_00000173133547010377008790000013963493019570162314_);fill:none;stroke:#FFFFFF;stroke-width:1.017;" x1="46.9" y1="69.1" x2="45.6" y2="45.4"/>
	</g>
	<g>
		<defs>
			<path id="SVGID_00000176016370115606971700000011752636032149426586_" d="M65.1,29.5L29.4,65.2c-1.5,1.5-1.5,4.1,0,5.6l35.7,35.7     c1.5,1.5,4.1,1.5,5.6,0l35.7-35.7c1.5-1.5,1.5-4.1,0-5.6L70.7,29.5c-0.8-0.8-1.8-1.2-2.8-1.2C66.9,28.3,65.8,28.7,65.1,29.5"/>
		</defs>
		<clipPath id="SVGID_00000084505361607382309070000004102160390828295828_">
			<use xlink:href="#SVGID_00000176016370115606971700000011752636032149426586_" style="overflow:visible;"/>
		</clipPath>
		
			<line style="clip-path:url(#SVGID_00000084505361607382309070000004102160390828295828_);fill:none;stroke:#FFFFFF;stroke-width:1.017;" x1="44.3" y1="69.6" x2="23.4" y2="68"/>
	</g>
	<g>
		<defs>
			<path id="SVGID_00000085944279911364369560000011905192132095176873_" d="M65.1,29.5L29.4,65.2c-1.5,1.5-1.5,4.1,0,5.6l35.7,35.7     c1.5,1.5,4.1,1.5,5.6,0l35.7-35.7c1.5-1.5,1.5-4.1,0-5.6L70.7,29.5c-0.8-0.8-1.8-1.2-2.8-1.2C66.9,28.3,65.8,28.7,65.1,29.5"/>
		</defs>
		<clipPath id="SVGID_00000142884993456939504190000002180837273080446597_">
			<use xlink:href="#SVGID_00000085944279911364369560000011905192132095176873_" style="overflow:visible;"/>
		</clipPath>
		
			<line style="clip-path:url(#SVGID_00000142884993456939504190000002180837273080446597_);fill:none;stroke:#FFFFFF;stroke-width:1.017;" x1="47.1" y1="68.9" x2="52.6" y2="101.2"/>
	</g>
	<g>
		<defs>
			<path id="SVGID_00000030447836794428079650000001100061934783332027_" d="M65.1,29.5L29.4,65.2c-1.5,1.5-1.5,4.1,0,5.6l35.7,35.7     c1.5,1.5,4.1,1.5,5.6,0l35.7-35.7c1.5-1.5,1.5-4.1,0-5.6L70.7,29.5c-0.8-0.8-1.8-1.2-2.8-1.2C66.9,28.3,65.8,28.7,65.1,29.5"/>
		</defs>
		<clipPath id="SVGID_00000102518345270768790990000007270568489209766535_">
			<use xlink:href="#SVGID_00000030447836794428079650000001100061934783332027_" style="overflow:visible;"/>
		</clipPath>
		
			<line style="clip-path:url(#SVGID_00000102518345270768790990000007270568489209766535_);fill:none;stroke:#FFFFFF;stroke-width:1.017;" x1="47.3" y1="68.7" x2="99.5" y2="80.9"/>
	</g>
	<g>
		<defs>
			<path id="SVGID_00000021117977037821324160000000457437856510235052_" d="M65.1,29.5L29.4,65.2c-1.5,1.5-1.5,4.1,0,5.6l35.7,35.7     c1.5,1.5,4.1,1.5,5.6,0l35.7-35.7c1.5-1.5,1.5-4.1,0-5.6L70.7,29.5c-0.8-0.8-1.8-1.2-2.8-1.2C66.9,28.3,65.8,28.7,65.1,29.5"/>
		</defs>
		<clipPath id="SVGID_00000080188665462313673180000014381804134419313573_">
			<use xlink:href="#SVGID_00000021117977037821324160000000457437856510235052_" style="overflow:visible;"/>
		</clipPath>
		
			<line style="clip-path:url(#SVGID_00000080188665462313673180000014381804134419313573_);fill:none;stroke:#FFFFFF;stroke-width:1.017;" x1="81.2" y1="76.4" x2="65.2" y2="112"/>
	</g>
	<g>
		<defs>
			<path id="SVGID_00000022544063304388657240000012767989844472290493_" d="M65.1,29.5L29.4,65.2c-1.5,1.5-1.5,4.1,0,5.6l35.7,35.7     c1.5,1.5,4.1,1.5,5.6,0l35.7-35.7c1.5-1.5,1.5-4.1,0-5.6L70.7,29.5c-0.8-0.8-1.8-1.2-2.8-1.2C66.9,28.3,65.8,28.7,65.1,29.5"/>
		</defs>
		<clipPath id="SVGID_00000083773810357897451060000013148822851775076483_">
			<use xlink:href="#SVGID_00000022544063304388657240000012767989844472290493_" style="overflow:visible;"/>
		</clipPath>
		<path style="clip-path:url(#SVGID_00000083773810357897451060000013148822851775076483_);fill:#F18500;" d="M73.3,86.4"/>
	</g>
	<g>
		<defs>
			<path id="SVGID_00000003789815435796963480000002659077471135723399_" d="M65.1,29.5L29.4,65.2c-1.5,1.5-1.5,4.1,0,5.6l35.7,35.7     c1.5,1.5,4.1,1.5,5.6,0l35.7-35.7c1.5-1.5,1.5-4.1,0-5.6L70.7,29.5c-0.8-0.8-1.8-1.2-2.8-1.2C66.9,28.3,65.8,28.7,65.1,29.5"/>
		</defs>
		<clipPath id="SVGID_00000153668652604363942980000007476655173411182995_">
			<use xlink:href="#SVGID_00000003789815435796963480000002659077471135723399_" style="overflow:visible;"/>
		</clipPath>
		
			<path style="clip-path:url(#SVGID_00000153668652604363942980000007476655173411182995_);fill:none;stroke:#FFFFFF;stroke-width:1.017;" d="    M73.3,86.4"/>
	</g>
	<g>
		<defs>
			<path id="SVGID_00000076569449082760707600000018434848263638362011_" d="M65.1,29.5L29.4,65.2c-1.5,1.5-1.5,4.1,0,5.6l35.7,35.7     c1.5,1.5,4.1,1.5,5.6,0l35.7-35.7c1.5-1.5,1.5-4.1,0-5.6L70.7,29.5c-0.8-0.8-1.8-1.2-2.8-1.2C66.9,28.3,65.8,28.7,65.1,29.5"/>
		</defs>
		<clipPath id="SVGID_00000008849093675895481000000014397244802932197781_">
			<use xlink:href="#SVGID_00000076569449082760707600000018434848263638362011_" style="overflow:visible;"/>
		</clipPath>
		
			<line style="clip-path:url(#SVGID_00000008849093675895481000000014397244802932197781_);fill:none;stroke:#FFFFFF;stroke-width:1.017;" x1="81" y1="76.5" x2="119" y2="72.4"/>
	</g>
	<g>
		<defs>
			<path id="SVGID_00000109020241638194025970000008076598153393526661_" d="M65.1,29.5L29.4,65.2c-1.5,1.5-1.5,4.1,0,5.6l35.7,35.7     c1.5,1.5,4.1,1.5,5.6,0l35.7-35.7c1.5-1.5,1.5-4.1,0-5.6L70.7,29.5c-0.8-0.8-1.8-1.2-2.8-1.2C66.9,28.3,65.8,28.7,65.1,29.5"/>
		</defs>
		<clipPath id="SVGID_00000082345695359798972580000013400840143009582752_">
			<use xlink:href="#SVGID_00000109020241638194025970000008076598153393526661_" style="overflow:visible;"/>
		</clipPath>
		
			<line style="clip-path:url(#SVGID_00000082345695359798972580000013400840143009582752_);fill:none;stroke:#FFFFFF;stroke-width:1.017;" x1="83.2" y1="51.9" x2="106.7" y2="76.4"/>
	</g>
	<g>
		<defs>
			<path id="SVGID_00000031198011755152597190000002892197866988407973_" d="M65.1,29.5L29.4,65.2c-1.5,1.5-1.5,4.1,0,5.6l35.7,35.7     c1.5,1.5,4.1,1.5,5.6,0l35.7-35.7c1.5-1.5,1.5-4.1,0-5.6L70.7,29.5c-0.8-0.8-1.8-1.2-2.8-1.2C66.9,28.3,65.8,28.7,65.1,29.5"/>
		</defs>
		<clipPath id="SVGID_00000113317425702466543400000005431400975590037947_">
			<use xlink:href="#SVGID_00000031198011755152597190000002892197866988407973_" style="overflow:visible;"/>
		</clipPath>
		
			<line style="clip-path:url(#SVGID_00000113317425702466543400000005431400975590037947_);fill:none;stroke:#FFFFFF;stroke-width:1.017;" x1="83.4" y1="52" x2="89.7" y2="45.5"/>
	</g>
	<g>
		<defs>
			<path id="SVGID_00000072264741886001090960000015726768712990973322_" d="M65.1,29.5L29.4,65.2c-1.5,1.5-1.5,4.1,0,5.6l35.7,35.7     c1.5,1.5,4.1,1.5,5.6,0l35.7-35.7c1.5-1.5,1.5-4.1,0-5.6L70.7,29.5c-0.8-0.8-1.8-1.2-2.8-1.2C66.9,28.3,65.8,28.7,65.1,29.5"/>
		</defs>
		<clipPath id="SVGID_00000165226276302348660890000014045785475350643620_">
			<use xlink:href="#SVGID_00000072264741886001090960000015726768712990973322_" style="overflow:visible;"/>
		</clipPath>
		
			<line style="clip-path:url(#SVGID_00000165226276302348660890000014045785475350643620_);fill:none;stroke:#FFFFFF;stroke-width:1.017;" x1="83" y1="51.9" x2="38.2" y2="54.7"/>
	</g>
	<g>
		<defs>
			<path id="SVGID_00000070094385140542966460000003284355154644579214_" d="M65.1,29.5L29.4,65.2c-1.5,1.5-1.5,4.1,0,5.6l35.7,35.7     c1.5,1.5,4.1,1.5,5.6,0l35.7-35.7c1.5-1.5,1.5-4.1,0-5.6L70.7,29.5c-0.8-0.8-1.8-1.2-2.8-1.2C66.9,28.3,65.8,28.7,65.1,29.5"/>
		</defs>
		<clipPath id="SVGID_00000176001251228580049770000004232710675347427730_">
			<use xlink:href="#SVGID_00000070094385140542966460000003284355154644579214_" style="overflow:visible;"/>
		</clipPath>
		
			<line style="clip-path:url(#SVGID_00000176001251228580049770000004232710675347427730_);fill:none;stroke:#FFFFFF;stroke-width:1.017;" x1="46.9" y1="68.5" x2="70.8" y2="24.7"/>
	</g>
	<g>
		<defs>
			<path id="SVGID_00000077325064074170660830000016255267691355708041_" d="M65.1,29.5L29.4,65.2c-1.5,1.5-1.5,4.1,0,5.6l35.7,35.7     c1.5,1.5,4.1,1.5,5.6,0l35.7-35.7c1.5-1.5,1.5-4.1,0-5.6L70.7,29.5c-0.8-0.8-1.8-1.2-2.8-1.2C66.9,28.3,65.8,28.7,65.1,29.5"/>
		</defs>
		<clipPath id="SVGID_00000008144807424115905260000017989841420810782388_">
			<use xlink:href="#SVGID_00000077325064074170660830000016255267691355708041_" style="overflow:visible;"/>
		</clipPath>
		
			<line style="clip-path:url(#SVGID_00000008144807424115905260000017989841420810782388_);fill:none;stroke:#FFFFFF;stroke-width:1.017;" x1="81" y1="74.8" x2="62" y2="24.6"/>
	</g>
</g>
<g>
	<path class="st0" d="M122.5,65.4c0,0.2,0,0.3-0.1,0.4s-0.2,0.1-0.4,0.1h-2.1c-0.2,0-0.3,0-0.4-0.1s-0.1-0.2-0.1-0.4V51   c0-0.2,0-0.3,0.1-0.4c0.1-0.1,0.2-0.1,0.4-0.1h3.6c0.4,0,1,0,1.6,0.1c0.6,0,1.2,0.2,1.7,0.5s1,0.7,1.4,1.3c0.4,0.6,0.6,1.4,0.6,2.4   c0,0.9-0.2,1.7-0.5,2.3s-0.7,1.2-1.2,1.6c-0.5,0.4-1,0.7-1.7,0.9c-0.6,0.2-1.2,0.3-1.8,0.3h-1.2L122.5,65.4L122.5,65.4z    M123.2,57.4c0.3,0,0.7,0,1-0.1c0.3,0,0.6-0.2,0.8-0.3c0.2-0.2,0.4-0.4,0.6-0.8c0.1-0.3,0.2-0.8,0.2-1.3s-0.1-0.9-0.2-1.1   c-0.1-0.3-0.3-0.5-0.5-0.6s-0.5-0.2-0.8-0.2s-0.6,0-0.9,0h-0.9v4.5h0.7V57.4z"/>
	<path class="st0" d="M134.4,65.4c0,0.2,0,0.3-0.1,0.4s-0.2,0.1-0.4,0.1h-2.1c-0.2,0-0.3,0-0.4-0.1c-0.1-0.1-0.1-0.2-0.1-0.4V51   c0-0.2,0-0.3,0.1-0.4c0.1-0.1,0.2-0.1,0.4-0.1h3.6c0.3,0,0.6,0,1,0s0.8,0.1,1.1,0.2c0.4,0.1,0.8,0.2,1.1,0.4c0.4,0.2,0.7,0.4,1,0.8   c0.3,0.3,0.5,0.7,0.7,1.2s0.3,1.1,0.3,1.8s-0.1,1.3-0.3,1.8s-0.4,0.9-0.7,1.2s-0.6,0.6-0.8,0.7c-0.3,0.2-0.5,0.3-0.8,0.4l3.3,6   c0,0.1,0.1,0.1,0.1,0.2s0.1,0.1,0.1,0.2s0,0.1-0.1,0.2c-0.1,0-0.2,0.1-0.3,0.1l-1.9,0.5c-0.1,0-0.2,0-0.3,0s-0.3-0.2-0.5-0.7l-3-6   h-1.1L134.4,65.4L134.4,65.4z M135,57.2c0.4,0,0.7,0,1-0.1c0.3,0,0.6-0.1,0.9-0.3c0.2-0.2,0.4-0.4,0.6-0.7c0.1-0.3,0.2-0.7,0.2-1.2   s-0.1-0.9-0.2-1.1c-0.1-0.3-0.3-0.5-0.6-0.6c-0.2-0.1-0.5-0.2-0.8-0.2s-0.6,0-0.9,0h-0.8v4.3h0.6V57.2z"/>
	<path class="st0" d="M154.6,58.2c0,2.7-0.5,4.8-1.5,6.1s-2.4,2-4.1,2c-1.7,0-3.1-0.7-4.1-2c-1-1.3-1.5-3.4-1.5-6.1s0.5-4.8,1.5-6.1   s2.4-2,4.1-2c0.9,0,1.6,0.2,2.3,0.5s1.3,0.8,1.8,1.5s0.8,1.5,1.1,2.5C154.4,55.7,154.6,56.9,154.6,58.2z M149,63.9   c0.8,0,1.4-0.5,1.8-1.5c0.4-1,0.6-2.4,0.6-4.2s-0.2-3.2-0.6-4.2c-0.4-1-1-1.5-1.8-1.5s-1.4,0.5-1.8,1.5c-0.4,1-0.6,2.4-0.6,4.2   s0.2,3.1,0.6,4.2C147.5,63.4,148.1,63.9,149,63.9z"/>
	<path class="st0" d="M164.2,61.2c0,0.7-0.1,1.3-0.2,2c-0.1,0.6-0.3,1.2-0.6,1.6c-0.3,0.5-0.8,0.8-1.3,1.1c-0.6,0.3-1.3,0.4-2.2,0.4   s-1.5-0.2-2.1-0.5c-0.5-0.3-0.9-0.7-1.2-1.1c-0.3-0.5-0.5-1-0.6-1.5s-0.1-1-0.1-1.5c0-0.1,0-0.2,0-0.2s0.1,0,0.2,0h2.2   c0.2,0,0.3,0.1,0.3,0.3c0,0.1,0,0.3,0,0.6c0,0.2,0,0.5,0.1,0.7s0.2,0.4,0.4,0.6c0.2,0.2,0.5,0.3,0.8,0.3s0.6-0.1,0.7-0.2   c0.2-0.1,0.3-0.3,0.4-0.5c0.1-0.2,0.1-0.4,0.1-0.7s0-0.6,0-0.9v-8.9H158c-0.2,0-0.3,0-0.4-0.1c-0.1-0.1-0.1-0.2-0.1-0.4V51   c0-0.2,0-0.3,0.1-0.4c0.1-0.1,0.2-0.1,0.4-0.1h5.6c0.2,0,0.3,0,0.4,0.1c0.1,0.1,0.1,0.2,0.1,0.4v10.2H164.2z"/>
	<path class="st0" d="M176.1,65.4c0,0.2,0,0.3-0.1,0.4s-0.2,0.1-0.4,0.1h-7.4c-0.2,0-0.3,0-0.4-0.1c-0.1-0.1-0.1-0.2-0.1-0.4V51   c0-0.2,0-0.3,0.1-0.4c0.1-0.1,0.2-0.1,0.4-0.1h7.4c0.2,0,0.4,0,0.4,0c0.1,0,0.1,0.1,0.1,0.2c0,0.1,0,0.1,0,0.1s0,0.1-0.1,0.2   l-0.4,1.5c0,0.2-0.1,0.3-0.2,0.3c-0.1,0-0.2,0.1-0.3,0.1h-4.4v3.7h3.8c0.2,0,0.3,0,0.4,0.1c0.1,0.1,0.1,0.2,0.1,0.4v1.5   c0,0.2,0,0.3-0.1,0.4c-0.1,0.1-0.2,0.1-0.4,0.1h-3.8v4.4h4.8c0.2,0,0.3,0,0.4,0.1c0.1,0.1,0.1,0.2,0.1,0.4L176.1,65.4L176.1,65.4z"/>
	<path class="st0" d="M182.1,65.4c0,0.2,0,0.3-0.1,0.4s-0.2,0.1-0.4,0.1h-2.1c-0.2,0-0.3,0-0.4-0.1c-0.1-0.1-0.1-0.2-0.1-0.4V51   c0-0.2,0-0.3,0.1-0.4c0.1-0.1,0.2-0.1,0.4-0.1h2.1c0.2,0,0.3,0,0.4,0.1c0.1,0.1,0.1,0.2,0.1,0.4v6.3l0,0l4.9-6.9   c0-0.1,0.1-0.1,0.2-0.2c0.1-0.1,0.1-0.1,0.2-0.1c0.1,0,0.1,0,0.2,0.1c0.1,0,0.1,0.1,0.2,0.1l1.5,0.8c0.1,0,0.1,0.1,0.2,0.1   c0.1,0.1,0.1,0.1,0.1,0.1c0,0.1,0,0.2-0.1,0.2l-0.1,0.1l-4.8,6.3l5.3,6.6l0.1,0.1c0,0,0.1,0.1,0.1,0.2c0,0,0,0.1-0.1,0.1   c-0.1,0.1-0.1,0.1-0.2,0.1l-1.8,0.9c-0.1,0-0.2,0.1-0.2,0.1c-0.1,0-0.1,0.1-0.2,0.1c-0.1,0-0.1,0-0.2-0.1c-0.1-0.1-0.1-0.1-0.2-0.2   l-5.2-6.9l0,0v6.5H182.1z"/>
	<path class="st0" d="M196.6,65.4c0,0.2,0,0.3-0.1,0.4s-0.2,0.1-0.4,0.1H194c-0.2,0-0.3,0-0.4-0.1c-0.1-0.1-0.1-0.2-0.1-0.4V53.2   h-2.9c-0.2,0-0.3,0-0.3-0.1s-0.1-0.1-0.1-0.3v-1.9c0-0.2,0-0.3,0.1-0.3s0.1-0.1,0.3-0.1h9.3c0.2,0,0.4,0,0.4,0   c0.1,0,0.1,0.1,0.1,0.2c0,0.1,0,0.1,0,0.1s0,0.1-0.1,0.2l-0.5,1.8c0,0.2-0.1,0.3-0.2,0.3c-0.1,0-0.2,0-0.3,0h-2.8v12.3H196.6z"/>
</g>
</svg>