<?xml version="1.0" encoding="utf-8" standalone="yes"?>
<!--
/*********************************************************************
* Copyright (c) 2025 Kentyou and others
*
* This program and the accompanying materials are made
* available under the terms of the Eclipse Public License 2.0
* which is available at https://www.eclipse.org/legal/epl-2.0/
*
* SPDX-License-Identifier: EPL-2.0
**********************************************************************/
-->
<!DOCTYPE svg PUBLIC "-//W3C//DTD SVG 1.1//EN" "http://www.w3.org/Graphics/SVG/1.1/DTD/svg11.dtd">
<svg xmlns="http://www.w3.org/2000/svg" xmlns:xlink="http://www.w3.org/1999/xlink" xmlns:dc="http://purl.org/dc/elements/1.1/" xmlns:cc="http://web.resource.org/cc/" xmlns:rdf="http://www.w3.org/1999/02/22-rdf-syntax-ns#" xmlns:sodipodi="http://sodipodi.sourceforge.net/DTD/sodipodi-0.dtd" xmlns:inkscape="http://www.inkscape.org/namespaces/inkscape" height="550px" style="zoom: 1;" cursor="crosshair" id="svg_document" width="790px" baseProfile="full" version="1.1" preserveAspectRatio="xMidYMid meet" viewBox="0 0 790 550"><!-- Created with macSVG - https://macsvg.org/ - https://github.com/dsward2/macsvg/ --><title id="svg_document_title">Untitled.svg</title><defs id="svg_document_defs"></defs><g id="main_group"></g><polygon points="31,17 83,36 137,12 163,48 110,97 14,88" stroke="brown" id="polygon1" stroke-width="3px" fill="lightcoral" transform=""></polygon><circle stroke="royalblue" id="circle1" stroke-width="3px" cy="42px" fill="cornflowerblue" r="2px" cx="45px" transform=""></circle><polygon points="206,17 258,36 312,12 338,48 285,97 189,88" stroke="brown" stroke-width="3px" id="polygon2" fill="lightcoral" transform=""></polygon><circle stroke="royalblue" stroke-width="3px" cy="46px" id="circle2" fill="cornflowerblue" r="2px" cx="220px" transform=""></circle><circle stroke="royalblue" id="circle3" cy="66px" stroke-width="3px" fill="cornflowerblue" r="2px" cx="230px" transform=""></circle><circle stroke="royalblue" id="circle4" cy="80px" stroke-width="3px" fill="cornflowerblue" r="2px" cx="320px" transform=""></circle><polygon points="31,17 83,36 137,12 163,48 110,97 14,88" stroke="brown" stroke-width="3px" id="polygon3" fill="lightcoral" transform="translate(0 120)"></polygon><polygon points="206,17 258,36 312,12 338,48 285,97 189,88" stroke="brown" stroke-width="3px" id="polygon4" fill="lightcoral" transform="translate(0 120)"></polygon><polyline points="71,143 122,184 106,148 142,154 " stroke="royalblue" id="polyline1" stroke-width="3px" fill="none" transform=""></polyline><polyline points="213,152 234,187 238,146 277,143 " stroke="royalblue" id="polyline2" stroke-width="3px" fill="none" transform=""></polyline><polyline points="267,210 299,143 320,148" stroke="royalblue" id="polyline3" stroke-width="3px" fill="none" transform=""></polyline><polygon points="31,17 83,36 137,12 163,48 110,97 14,88" stroke="brown" stroke-width="3px" id="polygon5" fill="lightcoral" transform="translate(0 240)"></polygon><polygon points="206,17 258,36 312,12 338,48 285,97 189,88" stroke="brown" stroke-width="3px" id="polygon6" fill="lightcoral" transform="translate(0 240)"></polygon><polygon points="54,286 90,258 99,310 54,309 " stroke="royalblue" id="polygon7" stroke-width="3px" fill="cornflowerblue" transform=""></polygon><polygon points="236,286 212,301 228,317 256,294" stroke="royalblue" id="polygon8" stroke-width="3px" fill="cornflowerblue" transform=""></polygon><polygon points="280,294 304,307 251,350 " stroke="royalblue" id="polygon9" stroke-width="3px" fill="cornflowerblue" transform=""></polygon><text stroke="none" style="outline-style:none;" id="text1" stroke-width="1px" x="159px" text-rendering="geometricPrecision" font-family="Helvetica" fill="#000000" font-size="32px" y="399px" transform="" text-anchor="middle">A Intersects B ✅</text><line stroke="#000000" y1="5.000000px" id="line1" stroke-width="3px" x1="380.000000px" y2="440.000000px" x2="380.000000px" transform=""></line><polygon points="31,17 83,36 137,12 163,48 110,97 14,88" stroke="brown" stroke-width="3px" id="polygon10" fill="lightcoral" transform="translate(408 0)"></polygon><polygon points="206,17 258,36 312,12 338,48 285,97 189,88" stroke="brown" stroke-width="3px" id="polygon11" fill="lightcoral" transform="translate(408 0)"></polygon><circle stroke="royalblue" stroke-width="3px" cy="25px" fill="cornflowerblue" r="2px" cx="490px" transform="" id="circle5"></circle><circle stroke="royalblue" id="circle6" cy="46px" stroke-width="3px" fill="cornflowerblue" r="2px" cx="600px" transform=""></circle><circle stroke="royalblue" cy="100px" stroke-width="3px" fill="cornflowerblue" r="2px" cx="650px" transform="" id="circle7"></circle><circle stroke="royalblue" cy="86px" stroke-width="3px" fill="cornflowerblue" r="2px" cx="720px" transform="" id="circle8"></circle><text stroke="none" style="outline-style:none;" id="text2" stroke-width="1px" x="157px" text-rendering="geometricPrecision" font-family="Helvetica" y="442px" fill="#000000" font-size="32px" transform="" text-anchor="middle">A Disjoint B ❌</text><polygon points="31,17 83,36 137,12 163,48 110,97 14,88" stroke="brown" stroke-width="3px" id="polygon12" fill="lightcoral" transform="translate(408 120)"></polygon><polygon points="206,17 258,36 312,12 338,48 285,97 189,88" stroke="brown" stroke-width="3px" id="polygon13" fill="lightcoral" transform="translate(408 120)"></polygon><polyline points="430,125 491,150 475,130 511,140" stroke="royalblue" stroke-width="3px" id="polyline4" fill="none" transform=""></polyline><polyline points="691,235 725,200 734,225" stroke="royalblue" stroke-width="3px" id="polyline5" fill="none" transform=""></polyline><polyline points="580,196 612,129 633,134 " stroke="royalblue" stroke-width="3px" id="polyline6" fill="none" transform=""></polyline><polygon points="31,17 83,36 137,12 163,48 110,97 14,88" stroke="brown" stroke-width="3px" id="polygon14" fill="lightcoral" transform="translate(408 240)"></polygon><polygon points="206,17 258,36 312,12 338,48 285,97 189,88" stroke="brown" stroke-width="3px" id="polygon15" fill="lightcoral" transform="translate(408 240)"></polygon><text stroke="none" style="outline-style:none;" id="text3" stroke-width="1px" x="567px" text-rendering="geometricPrecision" font-family="Helvetica" y="399px" fill="#000000" font-size="32px" transform="" text-anchor="middle">A Intersects B ❌</text><text stroke="none" style="outline-style:none;" id="text4" stroke-width="1px" x="565px" text-rendering="geometricPrecision" font-family="Helvetica" fill="#000000" font-size="32px" y="438px" transform="" text-anchor="middle">B Disjoint A ✅</text><rect stroke="brown" x="150px" height="60px" y="474px" id="rect1" stroke-width="3px" width="60px" fill="lightcoral" transform="">B</rect><text stroke="none" style="outline-style:none;" id="text5" stroke-width="1px" x="180px" text-rendering="geometricPrecision" font-family="Helvetica" fill="#000000" font-size="32px" y="514px" transform="" text-anchor="middle">A</text><rect stroke="royalblue" x="522px" height="60px" y="474px" stroke-width="3px" id="rect2" width="60px" fill="cornflowerblue" transform=""></rect><text stroke="none" style="outline-style:none;" id="text6" stroke-width="1px" x="552px" text-rendering="geometricPrecision" font-family="Helvetica" y="514px" fill="#000000" font-size="32px" transform="" text-anchor="middle">B</text><polygon points="280,294 304,307 251,350 " stroke="royalblue" stroke-width="3px" fill="cornflowerblue" transform="" id="polygon16"></polygon><polygon points="422,232 446,245 393,288 " stroke="royalblue" stroke-width="3px" id="polygon17" fill="cornflowerblue" transform=""></polygon><polygon points="754,282 778,295 725,338 " stroke="royalblue" stroke-width="3px" id="polygon18" fill="cornflowerblue" transform=""></polygon><polygon points="620,247 697,249 667,268" stroke="royalblue" id="polygon19" stroke-width="3px" fill="cornflowerblue" transform=""></polygon></svg>